<?xml version="1.0" encoding="UTF-8"?>
<!DOCTYPE svg PUBLIC "-//W3C//DTD SVG 1.1//EN" "http://www.w3.org/Graphics/SVG/1.1/DTD/svg11.dtd">
<svg xmlns="http://www.w3.org/2000/svg" version="1.1" width="1920px" height="1080px" style="shape-rendering:geometricPrecision; text-rendering:geometricPrecision; image-rendering:optimizeQuality; fill-rule:evenodd; clip-rule:evenodd" xmlns:xlink="http://www.w3.org/1999/xlink">
<g><path style="opacity:1" fill="#f9faf9" d="M 156.5,213.5 C 228.501,213.333 300.501,213.5 372.5,214C 441.606,221.776 494.44,254.942 531,313.5C 561.885,369.588 574.218,429.588 568,493.5C 563.033,551.722 542.367,603.388 506,648.5C 485.37,671.9 460.203,688.4 430.5,698C 413.973,702.305 397.306,705.972 380.5,709C 305.834,709.5 231.167,709.667 156.5,709.5C 156.5,544.167 156.5,378.833 156.5,213.5 Z M 280.5,330.5 C 312.502,330.333 344.502,330.5 376.5,331C 385.253,333.044 393.253,336.71 400.5,342C 423.941,360.168 438.441,384.001 444,413.5C 448.527,450.99 445.86,487.99 436,524.5C 430.084,547.868 417.584,566.701 398.5,581C 388.294,587.069 377.294,590.735 365.5,592C 337.169,592.5 308.835,592.667 280.5,592.5C 280.5,505.167 280.5,417.833 280.5,330.5 Z"/></g>
<g><path style="opacity:1" fill="#f9faf9" d="M 722.5,213.5 C 764.406,213.17 806.239,213.503 848,214.5C 902.533,379.266 957.367,543.933 1012.5,708.5C 970.837,709.667 929.171,709.833 887.5,709C 877.273,679.653 867.44,650.153 858,620.5C 831.239,619.671 804.405,619.171 777.5,619C 764.795,592.423 751.962,565.923 739,539.5C 720.265,595.87 701.432,652.204 682.5,708.5C 640.839,709.5 599.172,709.833 557.5,709.5C 612.102,544.026 667.102,378.693 722.5,213.5 Z M 784.5,401.5 C 796.107,434.819 807.44,468.319 818.5,502C 796.169,502.5 773.836,502.667 751.5,502.5C 762.698,468.906 773.698,435.24 784.5,401.5 Z"/></g>
<g><path style="opacity:1" fill="#f9faf9" d="M 902.5,213.5 C 950.501,213.333 998.501,213.5 1046.5,214C 1076.63,261.089 1107.13,307.923 1138,354.5C 1169.04,307.581 1200.21,260.747 1231.5,214C 1276.5,213.167 1321.5,213.333 1366.5,214.5C 1309.75,296.993 1253.25,379.66 1197,462.5C 1196.5,544.833 1196.33,627.166 1196.5,709.5C 1155.17,709.5 1113.83,709.5 1072.5,709.5C 1072.67,627.166 1072.5,544.833 1072,462.5C 1015.48,379.442 958.98,296.442 902.5,213.5 Z"/></g>
<g><path style="opacity:1" fill="#f9faf9" d="M 1391.5,213.5 C 1529.5,213.5 1667.5,213.5 1805.5,213.5C 1805.67,254.168 1805.5,294.835 1805,335.5C 1722.83,421 1640.67,506.5 1558.5,592C 1640.83,592.5 1723.17,592.667 1805.5,592.5C 1805.5,631.5 1805.5,670.5 1805.5,709.5C 1667.5,709.5 1529.5,709.5 1391.5,709.5C 1391.33,670.165 1391.5,630.832 1392,591.5C 1473.72,504.571 1555.55,417.738 1637.5,331C 1555.5,330.5 1473.5,330.333 1391.5,330.5C 1391.5,291.5 1391.5,252.5 1391.5,213.5 Z"/></g>
<g><path style="opacity:1" fill="#f9faf9" d="M 156.5,729.5 C 169.833,729.5 183.167,729.5 196.5,729.5C 196.5,782.833 196.5,836.167 196.5,889.5C 183.167,889.5 169.833,889.5 156.5,889.5C 156.5,836.167 156.5,782.833 156.5,729.5 Z"/></g>
<g><path style="opacity:1" fill="#f9faf9" d="M 212.5,729.5 C 227.504,729.333 242.504,729.5 257.5,730C 276.792,760.749 295.959,791.583 315,822.5C 315.5,791.502 315.667,760.502 315.5,729.5C 328.833,729.5 342.167,729.5 355.5,729.5C 355.5,782.833 355.5,836.167 355.5,889.5C 340.818,889.833 326.152,889.499 311.5,888.5C 291.803,857.967 272.303,827.3 253,796.5C 252.5,827.498 252.333,858.498 252.5,889.5C 239.167,889.5 225.833,889.5 212.5,889.5C 212.5,836.167 212.5,782.833 212.5,729.5 Z"/></g>
<g><path style="opacity:1" fill="#f9faf9" d="M 371.5,729.5 C 411.172,729.167 450.839,729.5 490.5,730.5C 484.542,742.746 478.875,755.08 473.5,767.5C 439.5,767.5 405.5,767.5 371.5,767.5C 371.5,754.833 371.5,742.167 371.5,729.5 Z"/></g>
<g><path style="opacity:1" fill="#f9faf9" d="M 499.5,729.5 C 512.833,729.5 526.167,729.5 539.5,729.5C 539.5,770.167 539.5,810.833 539.5,851.5C 563.167,851.5 586.833,851.5 610.5,851.5C 610.5,864.167 610.5,876.833 610.5,889.5C 573.5,889.5 536.5,889.5 499.5,889.5C 499.5,836.167 499.5,782.833 499.5,729.5 Z"/></g>
<g><path style="opacity:1" fill="#f9faf9" d="M 616.5,729.5 C 629.167,729.5 641.833,729.5 654.5,729.5C 654.333,759.169 654.5,788.835 655,818.5C 655.675,829.882 660.175,839.382 668.5,847C 670.5,848 672.5,849 674.5,850C 685.436,851.406 696.436,851.906 707.5,851.5C 707.5,810.833 707.5,770.167 707.5,729.5C 721.167,729.5 734.833,729.5 748.5,729.5C 748.5,782.833 748.5,836.167 748.5,889.5C 721.498,889.667 694.498,889.5 667.5,889C 640.963,881.462 624.129,864.295 617,837.5C 616.5,801.502 616.333,765.502 616.5,729.5 Z"/></g>
<g><path style="opacity:1" fill="#f9faf9" d="M 764.5,729.5 C 804.172,729.167 843.839,729.5 883.5,730.5C 877.542,742.746 871.875,755.08 866.5,767.5C 832.5,767.5 798.5,767.5 764.5,767.5C 764.5,754.833 764.5,742.167 764.5,729.5 Z"/></g>
<g><path style="opacity:1" fill="#f9faf9" d="M 890.5,729.5 C 905.504,729.333 920.504,729.5 935.5,730C 954.792,760.749 973.959,791.583 993,822.5C 993.5,791.502 993.667,760.502 993.5,729.5C 1006.83,729.5 1020.17,729.5 1033.5,729.5C 1033.5,782.833 1033.5,836.167 1033.5,889.5C 1018.82,889.833 1004.15,889.499 989.5,888.5C 969.803,857.967 950.303,827.3 931,796.5C 930.5,827.498 930.333,858.498 930.5,889.5C 917.167,889.5 903.833,889.5 890.5,889.5C 890.5,836.167 890.5,782.833 890.5,729.5 Z"/></g>
<g><path style="opacity:1" fill="#f9faf9" d="M 1107.5,729.5 C 1132.84,729.333 1158.17,729.5 1183.5,730C 1177.17,742.333 1170.83,754.667 1164.5,767C 1146.5,767.333 1128.5,767.667 1110.5,768C 1100.84,771.664 1094.67,778.497 1092,788.5C 1087.59,806.104 1089.26,823.104 1097,839.5C 1100.47,845.641 1105.64,849.474 1112.5,851C 1135.83,851.5 1159.16,851.667 1182.5,851.5C 1182.5,864.167 1182.5,876.833 1182.5,889.5C 1157.16,889.667 1131.83,889.5 1106.5,889C 1081.66,884.839 1064.49,871.005 1055,847.5C 1050.75,835.372 1048.92,822.872 1049.5,810C 1048.41,784.592 1056.74,762.925 1074.5,745C 1084.3,737.099 1095.3,731.933 1107.5,729.5 Z"/></g>
<g><path style="opacity:1" fill="#f9faf9" d="M 1189.5,729.5 C 1229.17,729.167 1268.84,729.5 1308.5,730.5C 1302.54,742.746 1296.88,755.08 1291.5,767.5C 1257.5,767.5 1223.5,767.5 1189.5,767.5C 1189.5,754.833 1189.5,742.167 1189.5,729.5 Z"/></g>
<g><path style="opacity:1" fill="#f9faf9" d="M 1389.5,729.5 C 1422.55,729.028 1455.55,729.528 1488.5,731C 1505.72,738.238 1516.22,751.071 1520,769.5C 1526.23,798.862 1516.07,820.028 1489.5,833C 1473.49,833.833 1457.49,833.666 1441.5,832.5C 1437,825.5 1432.5,818.5 1428,811.5C 1427.5,837.498 1427.33,863.498 1427.5,889.5C 1414.83,889.5 1402.17,889.5 1389.5,889.5C 1389.5,836.167 1389.5,782.833 1389.5,729.5 Z M 1427.5,767.5 C 1442.84,767.333 1458.17,767.5 1473.5,768C 1487.29,776.995 1487.96,786.995 1475.5,798C 1474.5,798.333 1473.5,798.667 1472.5,799C 1457.5,799.5 1442.5,799.667 1427.5,799.5C 1427.5,788.833 1427.5,778.167 1427.5,767.5 Z"/></g>
<g><path style="opacity:1" fill="#f9faf9" d="M 1532.5,729.5 C 1546.18,729.167 1559.85,729.501 1573.5,730.5C 1584.43,762.796 1595.27,795.13 1606,827.5C 1616.82,795.215 1627.49,762.881 1638,730.5C 1651.77,729.178 1665.6,729.178 1679.5,730.5C 1661.75,783.332 1644.09,836.166 1626.5,889C 1612.59,889.823 1598.76,889.656 1585,888.5C 1567.19,835.575 1549.69,782.575 1532.5,729.5 Z"/></g>
<g><path style="opacity:1" fill="#f9faf9" d="M 1690.5,729.5 C 1730.17,729.167 1769.84,729.5 1809.5,730.5C 1803.54,742.746 1797.88,755.08 1792.5,767.5C 1758.5,767.5 1724.5,767.5 1690.5,767.5C 1690.5,754.833 1690.5,742.167 1690.5,729.5 Z"/></g>
<g><path style="opacity:1" fill="#f9faf9" d="M 371.5,789.5 C 405.167,789.5 438.833,789.5 472.5,789.5C 472.5,802.5 472.5,815.5 472.5,828.5C 438.833,828.5 405.167,828.5 371.5,828.5C 371.5,815.5 371.5,802.5 371.5,789.5 Z"/></g>
<g><path style="opacity:1" fill="#f9faf9" d="M 764.5,789.5 C 798.167,789.5 831.833,789.5 865.5,789.5C 865.5,802.5 865.5,815.5 865.5,828.5C 831.833,828.5 798.167,828.5 764.5,828.5C 764.5,815.5 764.5,802.5 764.5,789.5 Z"/></g>
<g><path style="opacity:1" fill="#f9faf9" d="M 1189.5,789.5 C 1223.17,789.5 1256.83,789.5 1290.5,789.5C 1290.5,802.5 1290.5,815.5 1290.5,828.5C 1256.83,828.5 1223.17,828.5 1189.5,828.5C 1189.5,815.5 1189.5,802.5 1189.5,789.5 Z"/></g>
<g><path style="opacity:1" fill="#f9faf9" d="M 1690.5,789.5 C 1724.17,789.5 1757.83,789.5 1791.5,789.5C 1791.5,802.5 1791.5,815.5 1791.5,828.5C 1757.83,828.5 1724.17,828.5 1690.5,828.5C 1690.5,815.5 1690.5,802.5 1690.5,789.5 Z"/></g>
<g><path style="opacity:1" fill="#f9faf9" d="M 764.5,851.5 C 801.5,851.5 838.5,851.5 875.5,851.5C 875.5,864.167 875.5,876.833 875.5,889.5C 838.5,889.5 801.5,889.5 764.5,889.5C 764.5,876.833 764.5,864.167 764.5,851.5 Z"/></g>
<g><path style="opacity:1" fill="#f9faf9" d="M 1189.5,851.5 C 1226.5,851.5 1263.5,851.5 1300.5,851.5C 1300.5,864.167 1300.5,876.833 1300.5,889.5C 1263.5,889.5 1226.5,889.5 1189.5,889.5C 1189.5,876.833 1189.5,864.167 1189.5,851.5 Z"/></g>
<g><path style="opacity:1" fill="#f9faf9" d="M 1690.5,851.5 C 1727.5,851.5 1764.5,851.5 1801.5,851.5C 1801.5,864.167 1801.5,876.833 1801.5,889.5C 1764.5,889.5 1727.5,889.5 1690.5,889.5C 1690.5,876.833 1690.5,864.167 1690.5,851.5 Z"/></g>
</svg>
